<?xml version="1.0" encoding="utf-8"?>
<!-- Generator: Adobe Illustrator 25.4.1, SVG Export Plug-In . SVG Version: 6.00 Build 0)  -->
<svg version="1.1" id="Layer_1" xmlns="http://www.w3.org/2000/svg" xmlns:xlink="http://www.w3.org/1999/xlink" x="0px" y="0px"
	 viewBox="0 0 600 200" style="enable-background:new 0 0 600 200;" xml:space="preserve">
<style type="text/css">
	.st0{opacity:0;}
	.st1{fill:#CDF27E;}
</style>
<desc>Created with Fabric.js 3.5.0</desc>
<rect class="st0" width="600" height="200"/>
<g id="_x33_063" transform="matrix(1.0551 0 0 1.0551 65.6788 108.1729)">
	<path vector-effect="non-scaling-stroke" class="st1" d="M-20,43.5c-0.4,0-0.8-0.1-1.1-0.3c-0.7-0.5-1-1.3-0.8-2.2l3.6-14.4h-13.8
		c-0.9,0-1.8-0.7-2-1.6L-46-31.6c-0.1-0.6,0-1.1,0.3-1.6c0.3-0.5,0.8-0.8,1.4-0.8l88.1-9.5c0.6-0.1,1.2,0.2,1.6,0.6
		c0.4,0.4,0.6,1.1,0.5,1.7l-7.8,58.2c-0.1,1-1,1.7-2,1.7h-23l-32,24.4C-19.1,43.4-19.5,43.5-20,43.5L-20,43.5z"/>
</g>
<g id="_x39_06315" transform="matrix(4.4181 0 0 4.4181 484.2446 99.4091)">
	<path vector-effect="non-scaling-stroke" class="st1" d="M-18.9-7c4.2,0,7.1,3.1,7.1,7.1c0,3.9-2.9,6.9-7.1,6.9h-3.4V-7H-18.9z
		 M-18.9,6.4c3.9,0,6.5-2.8,6.5-6.4c0-3.7-2.6-6.5-6.5-6.5h-2.8V6.4H-18.9z M0.2,7l-1.8-4h-8l-1.8,4H-12l6.3-14h0.3L0.8,7
		C0.8,7,0.2,7,0.2,7z M-9.4,2.4h7.6L-5.6-6L-9.4,2.4z M6.4-7.3c2,0,3.6,1.3,4.1,3L10-4.1C9.5-5.6,8.2-6.7,6.4-6.7
		c-2,0-3.4,1.2-3.4,2.7c0,1.4,1,2.4,2.8,3.1L7-0.4c2,0.8,3.9,1.6,3.9,4.1c0,2-2,3.6-4.3,3.6c-2.2,0-4.2-1.4-4.6-3.4l0.6-0.2
		c0.5,1.9,2.1,3,4.1,3s3.8-1.3,3.8-3c0-2.1-1.6-2.8-3.3-3.5L5.8-0.3c-2.2-0.9-3.3-2-3.3-3.6C2.5-5.8,4-7.3,6.4-7.3L6.4-7.3z M21.7-7
		h0.6V7h-0.6V0.4h-8.4V7h-0.6V-7h0.6v6.9h8.4C21.7-0.1,21.7-7,21.7-7z"/>
</g>
<g id="_x39_14325" transform="matrix(4.4514 0 0 4.4514 255.9058 99.479)">
	<path vector-effect="non-scaling-stroke" class="st1" d="M-14.5,5.5c-1.2,1.1-2.9,1.7-4.8,1.7c-3.9,0-7.3-2.9-7.3-7.2
		s3.4-7.2,7.3-7.2c1.8,0,3.5,0.6,4.7,1.7l-1.8,2c-0.7-0.5-1.7-0.9-2.8-0.9c-2.5,0-4.4,1.9-4.4,4.5s1.9,4.5,4.4,4.5
		c1.1,0,2.1-0.4,2.9-1L-14.5,5.5z M-5.7-7.2c3.9,0,7.3,2.9,7.3,7.2s-3.4,7.2-7.3,7.2s-7.3-2.9-7.3-7.2S-9.6-7.2-5.7-7.2z M-5.7,4.5
		c2.4,0,4.2-1.9,4.2-4.5s-1.9-4.5-4.2-4.5S-9.9-2.6-9.9,0S-8,4.5-5.7,4.5z M8.7-7c4,0,7.1,3.1,7.1,6.9c0,4-3.1,7.1-7.1,7.1h-5V-7
		H8.7z M8.6,4.2c2.7,0,4.1-1.9,4.1-4.3c0-2.2-1.4-4.2-4.1-4.2H6.6v8.5H8.6z M20.7,4.3h5.9V7h-6.3h-2.5V-7h2.9h5.7v2.7h-5.7v3H25v2.6
		h-4.3L20.7,4.3L20.7,4.3z"/>
</g>
</svg>
